# xmcd CD database file
#
# Track frame offsets:
#	300
#	38070
#	66693
#	102797
#	133634
#	166825
#	208346
#	236535
#
# Disc length: 3691 seconds
#
# Revision: 0
# Processed by: cddbd v1.5.1PL2 Copyright (c) Steve Scherf et al.
# Submitted via: CDex 1.51
#
DISCID=720e6708
DTITLE=Klaus Graf Quartett - Changes In Life
DYEAR=2002
DGENRE=Jazz
TTITLE0=Changes In Life
TTITLE1=True Blues
TTITLE2=Claudia
TTITLE3=The Rhythm You Got
TTITLE4=Goriza
TTITLE5=Autumn Comes
TTITLE6=Cherokee
TTITLE7=Pollex Dolorosus
EXTD=YEAR: 2002
EXTT0=
EXTT1=
EXTT2=
EXTT3=
EXTT4=
EXTT5=
EXTT6=
EXTT7=
PLAYORDER=
